<?xml version="1.0" standalone="no"?>
<!DOCTYPE svg PUBLIC "-//W3C//DTD SVG 20010904//EN"
 "http://www.w3.org/TR/2001/REC-SVG-20010904/DTD/svg10.dtd">
<svg version="1.0" xmlns="http://www.w3.org/2000/svg"
 width="700.000000pt" height="700.000000pt" viewBox="0 0 700.000000 700.000000"
 preserveAspectRatio="xMidYMid meet">
<metadata>
Created by potrace 1.11, written by Peter Selinger 2001-2013
</metadata>
<g transform="translate(0.000000,700.000000) scale(0.100000,-0.100000)"
fill="#000000" stroke="none">
<path d="M3252 5819 c-402 -39 -814 -202 -1160 -461 -123 -92 -356 -325 -448
-448 -534 -714 -625 -1638 -240 -2425 480 -981 1550 -1496 2611 -1259 969 218
1705 1050 1805 2043 108 1084 -557 2105 -1595 2446 -301 99 -644 136 -973 104z
m414 -460 c450 -44 843 -227 1154 -539 651 -651 730 -1687 185 -2425 -135
-183 -274 -315 -468 -446 -343 -230 -777 -345 -1172 -310 -346 30 -632 129
-902 310 -356 239 -599 558 -734 961 -272 817 49 1714 779 2173 341 214 763
315 1158 276z"/>
<path d="M3425 3959 c-190 -27 -360 -202 -383 -392 -19 -151 24 -282 125 -388
181 -190 485 -190 668 2 171 179 171 459 0 638 -108 113 -253 163 -410 140z"/>
</g>
</svg>
