<svg width="1121" height="778" viewBox="0 0 1121 778" fill="none" xmlns="http://www.w3.org/2000/svg">
<path d="M212.592 167C247.939 167 276.592 138.346 276.592 103C276.592 67.6534 247.939 38.9996 212.592 38.9996C177.246 38.9996 148.592 67.6534 148.592 103C148.592 138.346 177.246 167 212.592 167Z" fill="#FF6584"/>
<path d="M523.976 343.121C523.976 494.133 434.202 546.86 323.461 546.86C212.719 546.86 122.945 494.133 122.945 343.121C122.945 192.11 323.461 -0.000366211 323.461 -0.000366211C323.461 -0.000366211 523.976 192.11 523.976 343.121Z" fill="#F2F2F2"/>
<path d="M316.156 523.761L318.21 397.378L403.674 241.024L318.532 377.552L319.455 320.725L378.357 207.605L319.699 305.687L321.359 203.481L384.433 113.423L321.621 187.409L322.658 -0.000366211L316.138 248.096L316.674 237.861L252.547 139.704L315.646 257.508L309.671 371.654L309.493 368.625L235.565 265.329L309.269 379.328L308.522 393.603L308.388 393.818L308.449 394.99L293.29 684.589H313.544L315.974 535.005L389.496 421.285L316.156 523.761Z" fill="#3F3D56"/>
<path d="M1120.59 404.971C1120.59 528.581 1047.11 571.742 956.461 571.742C865.813 571.742 792.329 528.581 792.329 404.971C792.329 281.361 956.461 124.11 956.461 124.11C956.461 124.11 1120.59 281.361 1120.59 404.971Z" fill="#F2F2F2"/>
<path d="M950.482 552.833L952.162 449.383L1022.12 321.4L952.426 433.154L953.182 386.639L1001.4 294.044L953.382 374.329L954.741 290.669L1006.37 216.952L954.954 277.514L955.804 124.11L950.467 327.188L950.906 318.811L898.414 238.464L950.064 334.893L945.173 428.327L945.027 425.847L884.514 341.294L944.844 434.608L944.232 446.293L944.123 446.469L944.173 447.428L931.764 684.478H948.343L950.332 562.037L1010.51 468.952L950.482 552.833Z" fill="#3F3D56"/>
<path d="M554.592 708.513C860.885 708.513 1109.18 695.962 1109.18 680.479C1109.18 664.996 860.885 652.445 554.592 652.445C248.299 652.445 0 664.996 0 680.479C0 695.962 248.299 708.513 554.592 708.513Z" fill="#3F3D56"/>
<path d="M892.445 731.598C944.906 731.598 987.433 729.448 987.433 726.797C987.433 724.145 944.906 721.995 892.445 721.995C839.984 721.995 797.456 724.145 797.456 726.797C797.456 729.448 839.984 731.598 892.445 731.598Z" fill="#3F3D56"/>
<path d="M548.72 777.916C601.18 777.916 643.708 775.766 643.708 773.114C643.708 770.462 601.18 768.313 548.72 768.313C496.259 768.313 453.731 770.462 453.731 773.114C453.731 775.766 496.259 777.916 548.72 777.916Z" fill="#3F3D56"/>
<path d="M287.944 745.249C407.798 745.249 504.959 740.337 504.959 734.279C504.959 728.22 407.798 723.309 287.944 723.309C168.091 723.309 70.9299 728.22 70.9299 734.279C70.9299 740.337 168.091 745.249 287.944 745.249Z" fill="#3F3D56"/>
<path d="M97.0837 645.27C140.714 645.27 176.084 609.9 176.084 566.27C176.084 522.639 140.714 487.27 97.0837 487.27C53.4532 487.27 18.0837 522.639 18.0837 566.27C18.0837 609.9 53.4532 645.27 97.0837 645.27Z" fill="#2F2E41"/>
<path d="M84.354 628.124L60.3557 627.841L59.8491 670.838L83.8474 671.121L84.354 628.124Z" fill="#2F2E41"/>
<path d="M132.351 628.69L108.352 628.407L107.846 671.404L131.844 671.687L132.351 628.69Z" fill="#2F2E41"/>
<path d="M99.8405 671.81C99.8893 667.668 90.9752 664.205 79.9302 664.075C68.8853 663.944 59.8921 667.197 59.8432 671.338C59.7944 675.48 68.7086 678.943 79.7535 679.074C90.7984 679.204 99.7917 675.952 99.8405 671.81Z" fill="#2F2E41"/>
<path d="M147.849 671.375C147.898 667.233 138.984 663.77 127.939 663.64C116.894 663.51 107.9 666.762 107.852 670.904C107.803 675.046 116.717 678.509 127.762 678.639C138.807 678.769 147.8 675.517 147.849 671.375Z" fill="#2F2E41"/>
<path d="M99.3192 573.295C114.231 573.295 126.319 561.206 126.319 546.295C126.319 531.383 114.231 519.295 99.3192 519.295C84.4075 519.295 72.3192 531.383 72.3192 546.295C72.3192 561.206 84.4075 573.295 99.3192 573.295Z" fill="white"/>
<path d="M99.3193 555.295C104.29 555.295 108.319 551.265 108.319 546.295C108.319 541.324 104.29 537.295 99.3193 537.295C94.3487 537.295 90.3193 541.324 90.3193 546.295C90.3193 551.265 94.3487 555.295 99.3193 555.295Z" fill="#3F3D56"/>
<path d="M21.322 491.904C15.2801 463.264 36.0096 434.64 67.6225 427.971C99.2354 421.302 129.761 439.114 135.802 467.754C141.844 496.395 120.824 506.684 89.2112 513.353C57.5983 520.022 27.3638 520.545 21.322 491.904Z" fill="#E2E8F0"/>
<path d="M217.592 610.342C217.592 665.418 184.852 684.648 144.462 684.648C143.527 684.648 142.592 684.638 141.66 684.617C139.788 684.577 137.935 684.488 136.104 684.363C99.6522 681.783 71.3323 661.564 71.3323 610.342C71.3323 557.334 139.071 490.446 144.159 485.496L144.168 485.487C144.364 485.295 144.462 485.202 144.462 485.202C144.462 485.202 217.592 555.266 217.592 610.342Z" fill="#E2E8F0"/>
<path d="M141.798 676.223L168.545 638.849L141.731 680.326L141.66 684.617C139.788 684.577 137.935 684.488 136.104 684.363L138.986 629.26L138.964 628.833L139.013 628.753L139.285 623.548L112.404 581.969L139.369 619.645L139.432 620.75L141.611 579.117L118.597 536.152L141.891 571.81L144.159 485.496L144.168 485.202V485.487L143.789 553.551L166.7 526.568L143.696 559.414L143.09 596.69L164.481 560.916L143.001 602.175L142.662 622.898L173.718 573.106L142.546 630.129L141.798 676.223Z" fill="#3F3D56"/>
<path d="M712.485 644.415C756.116 644.415 791.485 609.046 791.485 565.415C791.485 521.785 756.116 486.415 712.485 486.415C668.855 486.415 633.485 521.785 633.485 565.415C633.485 609.046 668.855 644.415 712.485 644.415Z" fill="#2F2E41"/>
<path d="M719.228 628.205L696.287 635.255L708.919 676.358L731.86 669.308L719.228 628.205Z" fill="#2F2E41"/>
<path d="M765.109 614.109L742.168 621.159L754.799 662.262L777.741 655.212L765.109 614.109Z" fill="#2F2E41"/>
<path d="M730.386 678.13C740.945 674.885 748.518 669.045 747.301 665.085C746.084 661.126 736.538 660.547 725.98 663.791C715.422 667.036 707.849 672.876 709.066 676.836C710.282 680.795 719.828 681.374 730.386 678.13Z" fill="#2F2E41"/>
<path d="M775.975 663.073C786.533 659.828 794.106 653.988 792.889 650.029C791.672 646.069 782.127 645.49 771.568 648.735C761.01 651.98 753.437 657.82 754.654 661.779C755.871 665.739 765.416 666.318 775.975 663.073Z" fill="#2F2E41"/>
<path d="M708.522 572.71C723.433 572.71 735.522 560.622 735.522 545.71C735.522 530.799 723.433 518.71 708.522 518.71C693.61 518.71 681.522 530.799 681.522 545.71C681.522 560.622 693.61 572.71 708.522 572.71Z" fill="white"/>
<path d="M708.522 554.71C713.492 554.71 717.522 550.681 717.522 545.71C717.522 540.74 713.492 536.71 708.522 536.71C703.551 536.71 699.522 540.74 699.522 545.71C699.522 550.681 703.551 554.71 708.522 554.71Z" fill="#3F3D56"/>
<path d="M617.651 517.701C603.162 492.268 614.173 458.685 642.246 442.692C670.318 426.699 704.821 434.351 719.311 459.785C733.801 485.218 716.92 501.428 688.848 517.421C660.775 533.415 632.141 543.134 617.651 517.701Z" fill="#E2E8F0"/>
<path d="M571.592 600.257C571.592 650.814 541.539 668.466 504.462 668.466C503.603 668.466 502.746 668.457 501.89 668.438C500.172 668.401 498.47 668.319 496.789 668.205C463.329 665.837 437.332 647.276 437.332 600.257C437.332 551.597 499.513 490.198 504.184 485.654L504.192 485.645C504.372 485.469 504.462 485.384 504.462 485.384C504.462 485.384 571.592 549.7 571.592 600.257Z" fill="#E2E8F0"/>
<path d="M502.016 660.732L526.569 626.425L501.955 664.499L501.89 668.438C500.172 668.401 498.47 668.319 496.789 668.205L499.436 617.623L499.415 617.23L499.46 617.157L499.71 612.38L475.034 574.211L499.787 608.797L499.845 609.811L501.845 571.594L480.72 532.153L502.102 564.886L504.184 485.654L504.192 485.384V485.645L503.845 548.125L524.876 523.356L503.759 553.507L503.203 587.725L522.839 554.886L503.121 592.76L502.81 611.782L531.318 566.076L502.703 618.421L502.016 660.732Z" fill="#3F3D56"/>
<path d="M835.592 621.342C835.592 676.418 802.852 695.648 762.462 695.648C761.527 695.648 760.592 695.638 759.66 695.617C757.788 695.577 755.935 695.488 754.104 695.363C717.652 692.783 689.332 672.564 689.332 621.342C689.332 568.334 757.071 501.446 762.159 496.496L762.168 496.487C762.364 496.295 762.462 496.202 762.462 496.202C762.462 496.202 835.592 566.266 835.592 621.342Z" fill="#E2E8F0"/>
<path d="M759.798 687.223L786.545 649.849L759.731 691.326L759.66 695.617C757.788 695.577 755.935 695.488 754.104 695.363L756.986 640.26L756.964 639.833L757.013 639.753L757.285 634.548L730.404 592.969L757.37 630.645L757.432 631.75L759.611 590.117L736.598 547.152L759.891 582.81L762.159 496.496L762.168 496.202V496.487L761.79 564.551L784.7 537.568L761.696 570.414L761.09 607.69L782.481 571.916L761.001 613.175L760.662 633.898L791.718 584.106L760.546 641.129L759.798 687.223Z" fill="#3F3D56"/>
<path d="M717.502 612.707C720.437 606.519 706.838 593.925 687.127 584.576C667.416 575.228 649.059 572.665 646.124 578.853C643.189 585.041 656.789 597.636 676.499 606.984C696.21 616.333 714.568 618.895 717.502 612.707Z" fill="#2F2E41"/>
<path d="M109.478 605.476C112.026 599.119 97.6758 587.386 77.4265 579.27C57.1773 571.154 38.6965 569.728 36.1486 576.084C33.6007 582.441 47.9504 594.174 68.1997 602.29C88.4489 610.406 106.93 611.833 109.478 605.476Z" fill="#2F2E41"/>
<path d="M554 369C552.667 369 551.533 368.533 550.6 367.6C549.667 366.667 549.2 365.533 549.2 364.2V338.6H485.8C484.467 338.6 483.333 338.133 482.4 337.2C481.467 336.267 481 335.133 481 333.8V320C481 317.867 481.733 315.867 483.2 314L542.2 232.4C542.867 231.333 543.867 230.533 545.2 230C546.533 229.333 548 229 549.6 229H571.6C573.067 229 574.2 229.467 575 230.4C575.933 231.2 576.4 232.333 576.4 233.8V314.8H594.4C595.867 314.8 597 315.267 597.8 316.2C598.733 317 599.2 318.133 599.2 319.6V333.8C599.2 335.133 598.733 336.267 597.8 337.2C597 338.133 595.867 338.6 594.4 338.6H576.4V364.2C576.4 365.533 575.933 366.667 575 367.6C574.2 368.533 573.067 369 571.6 369H554ZM509.2 315.6H549.8V258.2L509.2 315.6ZM671.464 371C653.597 371 640.264 366.067 631.464 356.2C622.797 346.333 618.064 333.4 617.264 317.4C617.131 313.8 617.064 307.667 617.064 299C617.064 290.2 617.131 283.933 617.264 280.2C617.931 264.467 622.731 251.667 631.664 241.8C640.597 231.933 653.864 227 671.464 227C689.064 227 702.331 231.933 711.264 241.8C720.197 251.667 724.997 264.467 725.664 280.2C725.931 287.667 726.064 293.933 726.064 299C726.064 304.067 725.931 310.2 725.664 317.4C724.864 333.4 720.064 346.333 711.264 356.2C702.597 366.067 689.331 371 671.464 371ZM671.464 347.6C679.731 347.6 685.931 344.933 690.064 339.6C694.197 334.133 696.397 326.4 696.664 316.4C696.797 312.533 696.864 306.6 696.864 298.6C696.864 290.6 696.797 284.8 696.664 281.2C696.397 271.467 694.197 263.867 690.064 258.4C685.931 252.933 679.731 250.133 671.464 250C663.197 250.133 656.997 252.933 652.864 258.4C648.731 263.867 646.531 271.467 646.264 281.2C646.131 284.8 646.064 290.6 646.064 298.6C646.064 306.6 646.131 312.533 646.264 316.4C646.531 326.4 648.731 334.133 652.864 339.6C656.997 344.933 663.197 347.6 671.464 347.6ZM816.5 369C815.167 369 814.033 368.533 813.1 367.6C812.167 366.667 811.7 365.533 811.7 364.2V338.6H748.3C746.967 338.6 745.833 338.133 744.9 337.2C743.967 336.267 743.5 335.133 743.5 333.8V320C743.5 317.867 744.233 315.867 745.7 314L804.7 232.4C805.367 231.333 806.367 230.533 807.7 230C809.033 229.333 810.5 229 812.1 229H834.1C835.567 229 836.7 229.467 837.5 230.4C838.433 231.2 838.9 232.333 838.9 233.8V314.8H856.9C858.367 314.8 859.5 315.267 860.3 316.2C861.233 317 861.7 318.133 861.7 319.6V333.8C861.7 335.133 861.233 336.267 860.3 337.2C859.5 338.133 858.367 338.6 856.9 338.6H838.9V364.2C838.9 365.533 838.433 366.667 837.5 367.6C836.7 368.533 835.567 369 834.1 369H816.5ZM771.7 315.6H812.3V258.2L771.7 315.6Z" fill="#3F3D56"/>
<path d="M509.1 422C508.767 422 508.483 421.883 508.25 421.65C508.017 421.417 507.9 421.133 507.9 420.8V388.25C507.9 387.883 508 387.583 508.2 387.35C508.433 387.117 508.733 387 509.1 387H530.85C531.217 387 531.517 387.117 531.75 387.35C531.983 387.583 532.1 387.883 532.1 388.25V391.85C532.1 392.183 531.983 392.467 531.75 392.7C531.517 392.933 531.217 393.05 530.85 393.05H514.85V402.45H529.85C530.217 402.45 530.517 402.567 530.75 402.8C530.983 403.033 531.1 403.317 531.1 403.65V407.25C531.1 407.583 530.983 407.867 530.75 408.1C530.517 408.333 530.217 408.45 529.85 408.45H514.85V420.8C514.85 421.133 514.733 421.417 514.5 421.65C514.267 421.883 513.967 422 513.6 422H509.1ZM538.378 391.75C538.045 391.75 537.761 391.633 537.528 391.4C537.295 391.167 537.178 390.883 537.178 390.55V386.9C537.178 386.533 537.295 386.233 537.528 386C537.761 385.767 538.045 385.65 538.378 385.65H542.978C543.345 385.65 543.645 385.767 543.878 386C544.111 386.233 544.228 386.533 544.228 386.9V390.55C544.228 390.883 544.095 391.167 543.828 391.4C543.595 391.633 543.311 391.75 542.978 391.75H538.378ZM538.578 422C538.245 422 537.961 421.883 537.728 421.65C537.495 421.417 537.378 421.133 537.378 420.8V397.2C537.378 396.833 537.495 396.55 537.728 396.35C537.961 396.117 538.245 396 538.578 396H542.828C543.161 396 543.445 396.117 543.678 396.35C543.911 396.583 544.028 396.867 544.028 397.2V420.8C544.028 421.133 543.911 421.417 543.678 421.65C543.445 421.883 543.161 422 542.828 422H538.578ZM551.861 422C551.527 422 551.244 421.883 551.011 421.65C550.777 421.417 550.661 421.133 550.661 420.8V387.7C550.661 387.333 550.777 387.05 551.011 386.85C551.244 386.617 551.527 386.5 551.861 386.5H556.061C556.427 386.5 556.711 386.617 556.911 386.85C557.144 387.05 557.261 387.333 557.261 387.7V420.8C557.261 421.133 557.144 421.417 556.911 421.65C556.711 421.883 556.427 422 556.061 422H551.861ZM575.142 422.5C571.408 422.5 568.442 421.433 566.242 419.3C564.075 417.167 562.925 414.133 562.792 410.2L562.742 408.95C562.742 404.783 563.825 401.5 565.992 399.1C568.192 396.7 571.225 395.5 575.092 395.5C579.058 395.5 582.108 396.7 584.242 399.1C586.408 401.5 587.492 404.7 587.492 408.7V409.75C587.492 410.083 587.375 410.367 587.142 410.6C586.908 410.833 586.608 410.95 586.242 410.95H569.642V411.35C569.708 413.217 570.208 414.767 571.142 416C572.108 417.2 573.425 417.8 575.092 417.8C576.992 417.8 578.542 417.033 579.742 415.5C580.042 415.133 580.275 414.917 580.442 414.85C580.608 414.75 580.892 414.7 581.292 414.7H585.692C585.992 414.7 586.242 414.783 586.442 414.95C586.675 415.117 586.792 415.35 586.792 415.65C586.792 416.45 586.308 417.4 585.342 418.5C584.408 419.567 583.058 420.5 581.292 421.3C579.525 422.1 577.475 422.5 575.142 422.5ZM580.592 406.7V406.6C580.592 404.633 580.092 403.067 579.092 401.9C578.125 400.7 576.792 400.1 575.092 400.1C573.392 400.1 572.058 400.7 571.092 401.9C570.125 403.067 569.642 404.633 569.642 406.6V406.7H580.592ZM605.375 422C605.042 422 604.758 421.883 604.525 421.65C604.292 421.417 604.175 421.133 604.175 420.8V397.2C604.175 396.833 604.292 396.55 604.525 396.35C604.758 396.117 605.042 396 605.375 396H609.525C609.892 396 610.175 396.117 610.375 396.35C610.608 396.55 610.725 396.833 610.725 397.2V399.25C612.758 396.75 615.542 395.5 619.075 395.5C622.142 395.5 624.575 396.5 626.375 398.5C628.175 400.5 629.075 403.25 629.075 406.75V420.8C629.075 421.133 628.958 421.417 628.725 421.65C628.525 421.883 628.242 422 627.875 422H623.375C623.042 422 622.758 421.883 622.525 421.65C622.292 421.417 622.175 421.133 622.175 420.8V407.05C622.175 405.117 621.692 403.617 620.725 402.55C619.792 401.45 618.442 400.9 616.675 400.9C614.975 400.9 613.608 401.45 612.575 402.55C611.542 403.65 611.025 405.15 611.025 407.05V420.8C611.025 421.133 610.908 421.417 610.675 421.65C610.475 421.883 610.192 422 609.825 422H605.375ZM646.975 422.5C643.042 422.5 640.008 421.5 637.875 419.5C635.742 417.5 634.592 414.733 634.425 411.2L634.375 409L634.425 406.8C634.592 403.3 635.758 400.55 637.925 398.55C640.092 396.517 643.108 395.5 646.975 395.5C650.808 395.5 653.808 396.517 655.975 398.55C658.142 400.55 659.308 403.3 659.475 406.8C659.508 407.2 659.525 407.933 659.525 409C659.525 410.067 659.508 410.8 659.475 411.2C659.308 414.733 658.158 417.5 656.025 419.5C653.892 421.5 650.875 422.5 646.975 422.5ZM646.975 417.45C648.742 417.45 650.092 416.9 651.025 415.8C651.992 414.7 652.508 413.083 652.575 410.95C652.608 410.617 652.625 409.967 652.625 409C652.625 408.033 652.608 407.383 652.575 407.05C652.508 404.917 651.992 403.3 651.025 402.2C650.058 401.067 648.708 400.5 646.975 400.5C645.208 400.5 643.842 401.067 642.875 402.2C641.908 403.3 641.392 404.917 641.325 407.05L641.275 409L641.325 410.95C641.392 413.083 641.908 414.7 642.875 415.8C643.842 416.9 645.208 417.45 646.975 417.45ZM676.668 422C673.635 422 671.352 421.217 669.818 419.65C668.285 418.05 667.518 415.717 667.518 412.65V401.35H663.568C663.235 401.35 662.952 401.233 662.718 401C662.485 400.767 662.368 400.483 662.368 400.15V397.2C662.368 396.867 662.485 396.583 662.718 396.35C662.952 396.117 663.235 396 663.568 396H667.518V387.7C667.518 387.333 667.635 387.05 667.868 386.85C668.102 386.617 668.385 386.5 668.718 386.5H672.868C673.235 386.5 673.518 386.617 673.718 386.85C673.952 387.05 674.068 387.333 674.068 387.7V396H680.318C680.652 396 680.935 396.117 681.168 396.35C681.402 396.583 681.518 396.867 681.518 397.2V400.15C681.518 400.483 681.402 400.767 681.168 401C680.935 401.233 680.652 401.35 680.318 401.35H674.068V412.1C674.068 413.533 674.318 414.617 674.818 415.35C675.318 416.083 676.135 416.45 677.268 416.45H680.768C681.135 416.45 681.418 416.567 681.618 416.8C681.852 417 681.968 417.283 681.968 417.65V420.8C681.968 421.133 681.852 421.417 681.618 421.65C681.418 421.883 681.135 422 680.768 422H676.668ZM700.9 422C700.566 422 700.283 421.883 700.05 421.65C699.816 421.417 699.7 421.133 699.7 420.8V401.35H695.65C695.316 401.35 695.033 401.233 694.8 401C694.566 400.767 694.45 400.483 694.45 400.15V397.2C694.45 396.867 694.566 396.583 694.8 396.35C695.033 396.117 695.316 396 695.65 396H699.7V394C699.7 390.967 700.516 388.717 702.15 387.25C703.783 385.75 706.25 385 709.55 385H713C713.333 385 713.616 385.117 713.85 385.35C714.083 385.583 714.2 385.867 714.2 386.2V389.15C714.2 389.483 714.083 389.767 713.85 390C713.616 390.233 713.333 390.35 713 390.35H709.8C708.5 390.35 707.583 390.667 707.05 391.3C706.516 391.933 706.25 392.917 706.25 394.25V396H712.5C712.833 396 713.116 396.117 713.35 396.35C713.583 396.583 713.7 396.867 713.7 397.2V400.15C713.7 400.483 713.583 400.767 713.35 401C713.116 401.233 712.833 401.35 712.5 401.35H706.25V420.8C706.25 421.133 706.133 421.417 705.9 421.65C705.7 421.883 705.416 422 705.05 422H700.9ZM728.811 422.5C724.878 422.5 721.844 421.5 719.711 419.5C717.578 417.5 716.428 414.733 716.261 411.2L716.211 409L716.261 406.8C716.428 403.3 717.594 400.55 719.761 398.55C721.928 396.517 724.944 395.5 728.811 395.5C732.644 395.5 735.644 396.517 737.811 398.55C739.978 400.55 741.144 403.3 741.311 406.8C741.344 407.2 741.361 407.933 741.361 409C741.361 410.067 741.344 410.8 741.311 411.2C741.144 414.733 739.994 417.5 737.861 419.5C735.728 421.5 732.711 422.5 728.811 422.5ZM728.811 417.45C730.578 417.45 731.928 416.9 732.861 415.8C733.828 414.7 734.344 413.083 734.411 410.95C734.444 410.617 734.461 409.967 734.461 409C734.461 408.033 734.444 407.383 734.411 407.05C734.344 404.917 733.828 403.3 732.861 402.2C731.894 401.067 730.544 400.5 728.811 400.5C727.044 400.5 725.678 401.067 724.711 402.2C723.744 403.3 723.228 404.917 723.161 407.05L723.111 409L723.161 410.95C723.228 413.083 723.744 414.7 724.711 415.8C725.678 416.9 727.044 417.45 728.811 417.45ZM756.55 422.5C753.483 422.5 751.066 421.5 749.3 419.5C747.533 417.5 746.65 414.75 746.65 411.25V397.2C746.65 396.833 746.766 396.55 747 396.35C747.233 396.117 747.516 396 747.85 396H752.35C752.683 396 752.966 396.117 753.2 396.35C753.433 396.583 753.55 396.867 753.55 397.2V410.95C753.55 415.05 755.333 417.1 758.9 417.1C760.633 417.1 762 416.55 763 415.45C764.033 414.35 764.55 412.85 764.55 410.95V397.2C764.55 396.833 764.666 396.55 764.9 396.35C765.133 396.117 765.416 396 765.75 396H770.2C770.566 396 770.85 396.117 771.05 396.35C771.283 396.55 771.4 396.833 771.4 397.2V420.8C771.4 421.133 771.283 421.417 771.05 421.65C770.85 421.883 770.566 422 770.2 422H766.05C765.716 422 765.433 421.883 765.2 421.65C764.966 421.417 764.85 421.133 764.85 420.8V418.75C763.016 421.25 760.25 422.5 756.55 422.5ZM779.203 422C778.87 422 778.586 421.883 778.353 421.65C778.12 421.417 778.003 421.133 778.003 420.8V397.2C778.003 396.833 778.12 396.55 778.353 396.35C778.586 396.117 778.87 396 779.203 396H783.353C783.72 396 784.003 396.117 784.203 396.35C784.436 396.55 784.553 396.833 784.553 397.2V399.25C786.586 396.75 789.37 395.5 792.903 395.5C795.97 395.5 798.403 396.5 800.203 398.5C802.003 400.5 802.903 403.25 802.903 406.75V420.8C802.903 421.133 802.786 421.417 802.553 421.65C802.353 421.883 802.07 422 801.703 422H797.203C796.87 422 796.586 421.883 796.353 421.65C796.12 421.417 796.003 421.133 796.003 420.8V407.05C796.003 405.117 795.52 403.617 794.553 402.55C793.62 401.45 792.27 400.9 790.503 400.9C788.803 400.9 787.436 401.45 786.403 402.55C785.37 403.65 784.853 405.15 784.853 407.05V420.8C784.853 421.133 784.736 421.417 784.503 421.65C784.303 421.883 784.02 422 783.653 422H779.203ZM818.903 422.5C815.536 422.5 812.953 421.433 811.153 419.3C809.353 417.133 808.37 414.25 808.203 410.65L808.153 409L808.203 407.35C808.336 403.817 809.303 400.967 811.103 398.8C812.936 396.6 815.536 395.5 818.903 395.5C822.103 395.5 824.653 396.6 826.553 398.8V387.7C826.553 387.333 826.67 387.05 826.903 386.85C827.136 386.617 827.42 386.5 827.753 386.5H832.103C832.47 386.5 832.753 386.617 832.953 386.85C833.186 387.05 833.303 387.333 833.303 387.7V420.8C833.303 421.133 833.186 421.417 832.953 421.65C832.753 421.883 832.47 422 832.103 422H828.053C827.72 422 827.436 421.883 827.203 421.65C826.97 421.417 826.853 421.133 826.853 420.8V418.95C825.02 421.317 822.37 422.5 818.903 422.5ZM820.803 417.1C822.703 417.1 824.103 416.5 825.003 415.3C825.936 414.067 826.453 412.55 826.553 410.75C826.586 410.35 826.603 409.717 826.603 408.85C826.603 407.95 826.586 407.3 826.553 406.9C826.486 405.233 825.97 403.817 825.003 402.65C824.036 401.483 822.636 400.9 820.803 400.9C817.236 400.9 815.336 403.1 815.103 407.5L815.053 409L815.103 410.5C815.336 414.9 817.236 417.1 820.803 417.1Z" fill="#FF6584"/>
</svg>
