<svg xmlns="http://www.w3.org/2000/svg" x="0px" y="0px"
width="240" height="240"
viewBox="0 0 172 172"
style=" fill:#000000;"><g fill="none" fill-rule="nonzero" stroke="none" stroke-width="1" stroke-linecap="butt" stroke-linejoin="miter" stroke-miterlimit="10" stroke-dasharray="" stroke-dashoffset="0" font-family="none" font-weight="none" font-size="none" text-anchor="none" style="mix-blend-mode: normal"><path d="M0,172v-172h172v172z" fill="none"></path><path d="M86,172c-47.49649,0 -86,-38.50351 -86,-86v0c0,-47.49649 38.50351,-86 86,-86v0c47.49649,0 86,38.50351 86,86v0c0,47.49649 -38.50351,86 -86,86z" fill="#ffffff"></path><g fill="#000000"><path d="M86,28.66667c-31.59642,0 -57.33333,25.73692 -57.33333,57.33333c0,31.59642 25.73692,57.33333 57.33333,57.33333c31.59642,0 57.33333,-25.73692 57.33333,-57.33333c0,-31.59642 -25.73692,-57.33333 -57.33333,-57.33333zM86,40.13333c25.39937,0 45.86667,20.4673 45.86667,45.86667c0,25.39937 -20.46729,45.86667 -45.86667,45.86667c-25.39937,0 -45.86667,-20.46729 -45.86667,-45.86667c0,-25.39937 20.4673,-45.86667 45.86667,-45.86667zM86,74.53333c-6.33287,0 -11.46667,5.1338 -11.46667,11.46667c0,6.33287 5.1338,11.46667 11.46667,11.46667c6.33287,0 11.46667,-5.1338 11.46667,-11.46667c0,-6.33287 -5.1338,-11.46667 -11.46667,-11.46667z"></path></g></g></svg>